<svg xmlns="http://www.w3.org/2000/svg" viewBox="0 0 32 32">
  <rect width="32" height="32" rx="4" fill="#0d0d20"/>
  <rect x="4" y="4" width="24" height="24" rx="2" fill="#1a1a3e" stroke="#4a4a8a" stroke-width="2"/>
  <!-- Pixel "B" in gold -->
  <rect x="9" y="8" width="3" height="3" fill="#f59e0b"/>
  <rect x="12" y="8" width="3" height="3" fill="#f59e0b"/>
  <rect x="15" y="8" width="3" height="3" fill="#f59e0b"/>
  <rect x="9" y="11" width="3" height="3" fill="#f59e0b"/>
  <rect x="18" y="11" width="3" height="3" fill="#f59e0b"/>
  <rect x="9" y="14" width="3" height="3" fill="#f59e0b"/>
  <rect x="12" y="14" width="3" height="3" fill="#f59e0b"/>
  <rect x="15" y="14" width="3" height="3" fill="#f59e0b"/>
  <rect x="9" y="17" width="3" height="3" fill="#f59e0b"/>
  <rect x="18" y="17" width="3" height="3" fill="#f59e0b"/>
  <rect x="9" y="20" width="3" height="3" fill="#f59e0b"/>
  <rect x="12" y="20" width="3" height="3" fill="#f59e0b"/>
  <rect x="15" y="20" width="3" height="3" fill="#f59e0b"/>
</svg>
